<svg width="48" height="49" viewBox="0 0 48 49" fill="none" xmlns="http://www.w3.org/2000/svg">
<path d="M8.33911 41.6747C6.86228 41.6747 5.60973 41.1606 4.58146 40.1323C3.5532 39.1041 3.03906 37.8515 3.03906 36.3747V13.053C3.03906 11.5761 3.5532 10.3236 4.58146 9.29533C5.60973 8.26706 6.86228 7.75293 8.33911 7.75293H39.6608C41.1376 7.75293 42.3902 8.26706 43.4185 9.29533C44.4467 10.3236 44.9609 11.5761 44.9609 13.053V36.3747C44.9609 37.8515 44.4467 39.1041 43.4185 40.1323C42.3902 41.1606 41.1376 41.6747 39.6608 41.6747H8.33911ZM39.6608 17.9291L25.4174 27.0247C25.1977 27.1624 24.9671 27.2657 24.7255 27.3345C24.4838 27.4034 24.242 27.4378 24 27.4378C23.7579 27.4378 23.5161 27.4034 23.2745 27.3345C23.0329 27.2657 22.8022 27.1624 22.5826 27.0247L8.33911 17.9291V36.3747H39.6608V17.9291ZM24 23.053L39.6608 13.053H8.33911L24 23.053ZM8.33911 18.5422V15.009V15.0721V13.053V15.0769V15.0095V18.5422Z" fill="#9C9AA7"/>
</svg>
